<svg width="40" height="32" viewBox="0 0 40 32" fill="none" xmlns="http://www.w3.org/2000/svg">
  <!-- Nest base -->
  <ellipse cx="20" cy="28" rx="18" ry="3" fill="#8B5A3C" opacity="0.6"/>
  
  <!-- Nest bowl -->
  <path d="M6 20C6 16 10 12 20 12C30 12 34 16 34 20C34 24 30 28 20 28C10 28 6 24 6 20Z" fill="#A0703F"/>
  
  <!-- Nest texture lines -->
  <path d="M8 18C12 16 16 16 20 18C24 16 28 16 32 18" stroke="#8B5A3C" stroke-width="1" opacity="0.8"/>
  <path d="M9 21C13 19 17 19 20 21C23 19 27 19 31 21" stroke="#8B5A3C" stroke-width="1" opacity="0.8"/>
  <path d="M10 24C14 22 17 22 20 24C23 22 26 22 30 24" stroke="#8B5A3C" stroke-width="1" opacity="0.8"/>
  
  <!-- Twigs and branches -->
  <path d="M4 22L8 20L6 18" stroke="#7A4A2A" stroke-width="2" stroke-linecap="round"/>
  <path d="M36 22L32 20L34 18" stroke="#7A4A2A" stroke-width="2" stroke-linecap="round"/>
  <path d="M12 12L16 10L14 8" stroke="#7A4A2A" stroke-width="1.5" stroke-linecap="round"/>
  <path d="M28 12L24 10L26 8" stroke="#7A4A2A" stroke-width="1.5" stroke-linecap="round"/>
  
  <!-- Eggs -->
  <ellipse cx="16" cy="20" rx="3" ry="4" fill="#F5F1EB" stroke="#E8E0D6" stroke-width="0.5"/>
  <ellipse cx="24" cy="19" rx="3" ry="4" fill="#F5F1EB" stroke="#E8E0D6" stroke-width="0.5"/>
  
  <!-- Egg speckles -->
  <circle cx="15" cy="18" r="0.5" fill="#D4C4B0" opacity="0.6"/>
  <circle cx="17" cy="21" r="0.3" fill="#D4C4B0" opacity="0.6"/>
  <circle cx="23" cy="17" r="0.4" fill="#D4C4B0" opacity="0.6"/>
  <circle cx="25" cy="20" r="0.3" fill="#D4C4B0" opacity="0.6"/>
</svg>